<svg height="2558" width="720" xmlns="http://www.w3.org/2000/svg">
<rect height="2558" fill="#555" width="720"></rect>
<text fill="#7f7" font-family="Courier New" font-size="12" xml:space="preserve">
<tspan x="10" y="26"></tspan>
<tspan x="10" y="42">&gt; npmdoc-github@0.0.1 test /home/travis/build/npmdoc/node-npmdoc-github</tspan>
<tspan x="10" y="58">&gt; (set -e; export PORT=$(utility2 shServerPortRandom); utility2 test test.js)</tspan>
<tspan x="10" y="74"></tspan>
<tspan x="10" y="90"></tspan>
<tspan x="10" y="106">[MODE_BUILD=npmTest] - 2017-03-24T09:27:10Z - npm-testing /home/travis/build/npmdoc/node-npmdoc-\</tspan>
<tspan x="10" y="122">github</tspan>
<tspan x="10" y="138"></tspan>
<tspan x="10" y="154"></tspan>
<tspan x="10" y="170">covering $ /home/travis/.nvm/versions/node/v7.7.4/bin/node /home/travis/build/npmdoc/node-npmdoc\</tspan>
<tspan x="10" y="186">-github/test.js</tspan>
<tspan x="10" y="202">merging file:///home/travis/build/npmdoc/node-npmdoc-github/tmp/build/test-report.json to test-r\</tspan>
<tspan x="10" y="218">eport</tspan>
<tspan x="10" y="234">&gt; server listening on http-port 43576</tspan>
<tspan x="10" y="250">[info] Generating...</tspan>
<tspan x="10" y="266">[info] Converting routes to functions</tspan>
<tspan x="10" y="282">[info] Writing test file for activity</tspan>
<tspan x="10" y="298">[info] Writing test file for authorization</tspan>
<tspan x="10" y="314">[info] Writing test file for enterprise</tspan>
<tspan x="10" y="330">[info] Writing test file for gists</tspan>
<tspan x="10" y="346">[info] Writing test file for gitdata</tspan>
<tspan x="10" y="362">[info] Writing test file for integrations</tspan>
<tspan x="10" y="378">[info] Writing test file for issues</tspan>
<tspan x="10" y="394">[info] Writing test file for migrations</tspan>
<tspan x="10" y="410">[info] Writing test file for misc</tspan>
<tspan x="10" y="426">[info] Writing test file for orgs</tspan>
<tspan x="10" y="442">[info] Writing test file for projects</tspan>
<tspan x="10" y="458">[info] Writing test file for pullRequests</tspan>
<tspan x="10" y="474">[info] Writing test file for reactions</tspan>
<tspan x="10" y="490">[info] Writing test file for repos</tspan>
<tspan x="10" y="506">[info] Writing test file for search</tspan>
<tspan x="10" y="522">[info] Writing test file for users</tspan>
<tspan x="10" y="538">created apidoc file:///home/travis/build/npmdoc/node-npmdoc-github/tmp/build/apidoc.html</tspan>
<tspan x="10" y="554"></tspan>
<tspan x="10" y="570"></tspan>
<tspan x="10" y="586">browserTest - created electron entry-page /home/travis/build/npmdoc/node-npmdoc-github/tmp/elect\</tspan>
<tspan x="10" y="602">ron.15affa426450.343041db50358.html</tspan>
<tspan x="10" y="618"></tspan>
<tspan x="10" y="634">[info] Generating...</tspan>
<tspan x="10" y="650">[info] Converting routes to functions</tspan>
<tspan x="10" y="666">[info] Writing test file for activity</tspan>
<tspan x="10" y="682">[info] Writing test file for authorization</tspan>
<tspan x="10" y="698">[info] Writing test file for enterprise</tspan>
<tspan x="10" y="714">[info] Writing test file for gists</tspan>
<tspan x="10" y="730">[info] Writing test file for gitdata</tspan>
<tspan x="10" y="746">[info] Writing test file for integrations</tspan>
<tspan x="10" y="762">[info] Writing test file for issues</tspan>
<tspan x="10" y="778">[info] Writing test file for migrations</tspan>
<tspan x="10" y="794">[info] Writing test file for misc</tspan>
<tspan x="10" y="810">[info] Writing test file for orgs</tspan>
<tspan x="10" y="826">[info] Writing test file for projects</tspan>
<tspan x="10" y="842">[info] Writing test file for pullRequests</tspan>
<tspan x="10" y="858">[info] Writing test file for reactions</tspan>
<tspan x="10" y="874">[info] Writing test file for repos</tspan>
<tspan x="10" y="890">[info] Writing test file for search</tspan>
<tspan x="10" y="906">[info] Writing test file for users</tspan>
<tspan x="10" y="922">Xlib:  extension "RANDR" missing on display ":99.0".</tspan>
<tspan x="10" y="938">merging file:///home/travis/build/npmdoc/node-npmdoc-github/tmp/build/test-report.json to test-r\</tspan>
<tspan x="10" y="954">eport</tspan>
<tspan x="10" y="970">Xlib:  extension "RANDR" missing on display ":99.0".</tspan>
<tspan x="10" y="986">[4968:0324/092713:WARNING:audio_manager.cc(314)] Multiple instances of AudioManager detected</tspan>
<tspan x="10" y="1002">[4968:0324/092713:WARNING:audio_manager.cc(275)] Multiple instances of AudioManager detected</tspan>
<tspan x="10" y="1018">[4985:0324/092713:ERROR:sandbox_linux.cc(343)] InitializeSandbox() called with multiple threads \</tspan>
<tspan x="10" y="1034">in process gpu-process. </tspan>
<tspan x="10" y="1050">[4968:0324/092713:ERROR:browser_gpu_channel_host_factory.cc(131)] Failed to create channel.</tspan>
<tspan x="10" y="1066"></tspan>
<tspan x="10" y="1082">browserTest - opened url file:///home/travis/build/npmdoc/node-npmdoc-github/tmp/build/apidoc.ht\</tspan>
<tspan x="10" y="1098">ml</tspan>
<tspan x="10" y="1114"></tspan>
<tspan x="10" y="1130">[node test-case 1 of 6 passed] - testCase_buildLib_default</tspan>
<tspan x="10" y="1146">[node test-case 2 of 6 passed] - testCase_buildReadme_default</tspan>
<tspan x="10" y="1162">[node test-case 3 of 6 passed] - testCase_buildTest_default</tspan>
<tspan x="10" y="1178"></tspan>
<tspan x="10" y="1194">browserTest - created electron entry-page /home/travis/build/npmdoc/node-npmdoc-github/tmp/elect\</tspan>
<tspan x="10" y="1210">ron.15affa42b720.aa2eebaee4aa9.html</tspan>
<tspan x="10" y="1226"></tspan>
<tspan x="10" y="1242">(node:4953) DeprecationWarning: node --debug is deprecated. Please use node --inspect instead.</tspan>
<tspan x="10" y="1258">Xlib:  extension "RANDR" missing on display ":99.0".</tspan>
<tspan x="10" y="1274">&gt; server listening on http-port 51652</tspan>
<tspan x="10" y="1290">merging file:///home/travis/build/npmdoc/node-npmdoc-github/tmp/build/test-report.json to test-r\</tspan>
<tspan x="10" y="1306">eport</tspan>
<tspan x="10" y="1322">Xlib:  extension "RANDR" missing on display ":99.0".</tspan>
<tspan x="10" y="1338">[5036:0324/092714:WARNING:audio_manager.cc(314)] Multiple instances of AudioManager detected</tspan>
<tspan x="10" y="1354">[5036:0324/092714:WARNING:audio_manager.cc(275)] Multiple instances of AudioManager detected</tspan>
<tspan x="10" y="1370">[5060:0324/092714:ERROR:sandbox_linux.cc(343)] InitializeSandbox() called with multiple threads \</tspan>
<tspan x="10" y="1386">in process gpu-process. </tspan>
<tspan x="10" y="1402">[5036:0324/092714:ERROR:browser_gpu_channel_host_factory.cc(131)] Failed to create channel.</tspan>
<tspan x="10" y="1418"></tspan>
<tspan x="10" y="1434">browserTest - opened url http://127.0.0.1:43576?modeTest=1</tspan>
<tspan x="10" y="1450"></tspan>
<tspan x="10" y="1466">[5036:0324/092716:INFO:CONSOLE(203)] "----------|-----------|-----------|-----------|-----------\</tspan>
<tspan x="10" y="1482">|</tspan>
<tspan x="10" y="1498">File      |   % Stmts |% Branches |   % Funcs |   % Lines |</tspan>
<tspan x="10" y="1514">----------|-----------|-----------|-----------|-----------|</tspan>
<tspan x="10" y="1530">----------|-----------|-----------|-----------|-----------|</tspan>
<tspan x="10" y="1546">All files |       100 |       100 |       100 |       100 |</tspan>
<tspan x="10" y="1562">----------|-----------|-----------|-----------|-----------|</tspan>
<tspan x="10" y="1578">", source: file:///home/travis/build/npmdoc/node-npmdoc-github/tmp/electron.15affa42b720.aa2eeba\</tspan>
<tspan x="10" y="1594">ee4aa9.html (203)</tspan>
<tspan x="10" y="1610">[5036:0324/092716:INFO:CONSOLE(203)] "created coverage file:///tmp/build/coverage.html/index.htm\</tspan>
<tspan x="10" y="1626">l", source: file:///home/travis/build/npmdoc/node-npmdoc-github/tmp/electron.15affa42b720.aa2eeb\</tspan>
<tspan x="10" y="1642">aee4aa9.html (203)</tspan>
<tspan x="10" y="1658"></tspan>
<tspan x="10" y="1674">browserTest - created screen-capture file:///home/travis/build/npmdoc/node-npmdoc-github/tmp/bui\</tspan>
<tspan x="10" y="1690">ld/screen-capture.npmTest.browser._2Fhome_2Ftravis_2Fbuild_2Fnpmdoc_2Fnode-npmdoc-github_2Ftmp_2\</tspan>
<tspan x="10" y="1706">Fbuild_2Fapidoc.html.png</tspan>
<tspan x="10" y="1722"></tspan>
<tspan x="10" y="1738"></tspan>
<tspan x="10" y="1754">browserTest - exit-code 0 - file:///home/travis/build/npmdoc/node-npmdoc-github/tmp/build/apidoc\</tspan>
<tspan x="10" y="1770">.html</tspan>
<tspan x="10" y="1786"></tspan>
<tspan x="10" y="1802">[node test-case 4 of 6 passed] - testCase_buildApidoc_default</tspan>
<tspan x="10" y="1818">[node test-case 5 of 6 passed] - testCase_buildApp_default</tspan>
<tspan x="10" y="1834"></tspan>
<tspan x="10" y="1850">browserTest - created screen-capture file:///home/travis/build/npmdoc/node-npmdoc-github/tmp/bui\</tspan>
<tspan x="10" y="1866">ld/screen-capture.npmTest.browser..png</tspan>
<tspan x="10" y="1882"></tspan>
<tspan x="10" y="1898"></tspan>
<tspan x="10" y="1914">browserTest - exit-code 0 - http://127.0.0.1:43576?modeTest=1</tspan>
<tspan x="10" y="1930"></tspan>
<tspan x="10" y="1946"></tspan>
<tspan x="10" y="1962">browserTest - merged coverage from /home/travis/build/npmdoc/node-npmdoc-github/tmp/coverage.npm\</tspan>
<tspan x="10" y="1978">Test.browser.%2F.json</tspan>
<tspan x="10" y="1994"></tspan>
<tspan x="10" y="2010"></tspan>
<tspan x="10" y="2026">browserTest - merging test-report from /home/travis/build/npmdoc/node-npmdoc-github/tmp/test-rep\</tspan>
<tspan x="10" y="2042">ort.npmTest.browser.%2F.json</tspan>
<tspan x="10" y="2058"></tspan>
<tspan x="10" y="2074">[node test-case 6 of 6 passed] - testCase_webpage_default</tspan>
<tspan x="10" y="2090">---------------------------|-----------|-----------|-----------|-----------|</tspan>
<tspan x="10" y="2106">File                       |   % Stmts |% Branches |   % Funcs |   % Lines |</tspan>
<tspan x="10" y="2122">---------------------------|-----------|-----------|-----------|-----------|</tspan>
<tspan x="10" y="2138">   node-npmdoc-github/     |       100 |       100 |       100 |       100 |</tspan>
<tspan x="10" y="2154">      example.js           |       100 |       100 |       100 |       100 |</tspan>
<tspan x="10" y="2170">      lib.npmdoc_github.js |       100 |       100 |       100 |       100 |</tspan>
<tspan x="10" y="2186">      test.js              |       100 |       100 |       100 |       100 |</tspan>
<tspan x="10" y="2202">---------------------------|-----------|-----------|-----------|-----------|</tspan>
<tspan x="10" y="2218">All files                  |       100 |       100 |       100 |       100 |</tspan>
<tspan x="10" y="2234">---------------------------|-----------|-----------|-----------|-----------|</tspan>
<tspan x="10" y="2250"></tspan>
<tspan x="10" y="2266">created coverage file:///home/travis/build/npmdoc/node-npmdoc-github/tmp/build/coverage.html/ind\</tspan>
<tspan x="10" y="2282">ex.html</tspan>
<tspan x="10" y="2298">merging file:///home/travis/build/npmdoc/node-npmdoc-github/tmp/build/test-report.json to test-r\</tspan>
<tspan x="10" y="2314">eport</tspan>
<tspan x="10" y="2330"></tspan>
<tspan x="10" y="2346">-------------------------------------------------------</tspan>
<tspan x="10" y="2362">| test-report - buildNpmdoc - node - linux v7.7.4 - 2017-03-24T09:26:59.231Z</tspan>
<tspan x="10" y="2378">|   19209 ms            0 failed        6 passed      |</tspan>
<tspan x="10" y="2394">-------------------------------------------------------</tspan>
<tspan x="10" y="2410"></tspan>
<tspan x="10" y="2426">created test-report file:///home/travis/build/npmdoc/node-npmdoc-github/tmp/build/test-report.ht\</tspan>
<tspan x="10" y="2442">ml</tspan>
<tspan x="10" y="2458"></tspan>
<tspan x="10" y="2474"></tspan>
<tspan x="10" y="2490">npmTest - 0 failed tests</tspan>
<tspan x="10" y="2506"></tspan>
<tspan x="10" y="2522"></tspan>
<tspan x="10" y="2538">[MODE_BUILD=npmTest] - 2017-03-24T09:27:21Z - EXIT_CODE - 0</tspan>
</text>
</svg>
