<svg height="2846" width="720" xmlns="http://www.w3.org/2000/svg">
<rect height="2846" fill="#555" width="720"></rect>
<text fill="#7f7" font-family="Courier New" font-size="12" xml:space="preserve">
<tspan x="10" y="26"></tspan>
<tspan x="10" y="42">&gt; npmdoc-github@0.0.2 test /home/travis/build/npmdoc/node-npmdoc-github</tspan>
<tspan x="10" y="58">&gt; (set -e; export PORT=$(utility2 shServerPortRandom); utility2 test test.js)</tspan>
<tspan x="10" y="74"></tspan>
<tspan x="10" y="90"></tspan>
<tspan x="10" y="106">[MODE_BUILD=npmTest] - 2017-03-25T12:34:35Z - npm-testing /home/travis/build/npmdoc/node-npmdoc-\</tspan>
<tspan x="10" y="122">github</tspan>
<tspan x="10" y="138"></tspan>
<tspan x="10" y="154"></tspan>
<tspan x="10" y="170">covering $ /home/travis/.nvm/versions/node/v7.7.4/bin/node /home/travis/build/npmdoc/node-npmdoc\</tspan>
<tspan x="10" y="186">-github/test.js</tspan>
<tspan x="10" y="202">merging file:///home/travis/build/npmdoc/node-npmdoc-github/tmp/build/test-report.json to test-r\</tspan>
<tspan x="10" y="218">eport</tspan>
<tspan x="10" y="234">&gt; server listening on http-port 59346</tspan>
<tspan x="10" y="250">[info] Generating...</tspan>
<tspan x="10" y="266">[info] Converting routes to functions</tspan>
<tspan x="10" y="282">[info] Writing test file for activity</tspan>
<tspan x="10" y="298">[info] Writing test file for authorization</tspan>
<tspan x="10" y="314">[info] Writing test file for enterprise</tspan>
<tspan x="10" y="330">[info] Writing test file for gists</tspan>
<tspan x="10" y="346">[info] Writing test file for gitdata</tspan>
<tspan x="10" y="362">[info] Writing test file for integrations</tspan>
<tspan x="10" y="378">[info] Writing test file for issues</tspan>
<tspan x="10" y="394">[info] Writing test file for migrations</tspan>
<tspan x="10" y="410">[info] Writing test file for misc</tspan>
<tspan x="10" y="426">[info] Writing test file for orgs</tspan>
<tspan x="10" y="442">[info] Writing test file for projects</tspan>
<tspan x="10" y="458">[info] Writing test file for pullRequests</tspan>
<tspan x="10" y="474">[info] Writing test file for reactions</tspan>
<tspan x="10" y="490">[info] Writing test file for repos</tspan>
<tspan x="10" y="506">[info] Writing test file for search</tspan>
<tspan x="10" y="522">[info] Writing test file for users</tspan>
<tspan x="10" y="538">created apidoc file:///home/travis/build/npmdoc/node-npmdoc-github/tmp/build/apidoc.html</tspan>
<tspan x="10" y="554"></tspan>
<tspan x="10" y="570"></tspan>
<tspan x="10" y="586">browserTest - created electron entry-page /home/travis/build/npmdoc/node-npmdoc-github/tmp/elect\</tspan>
<tspan x="10" y="602">ron.15b0576177f0.e8772e0a258c5.html</tspan>
<tspan x="10" y="618"></tspan>
<tspan x="10" y="634">[info] Generating...</tspan>
<tspan x="10" y="650">[info] Converting routes to functions</tspan>
<tspan x="10" y="666">[info] Writing test file for activity</tspan>
<tspan x="10" y="682">[info] Writing test file for authorization</tspan>
<tspan x="10" y="698">[info] Writing test file for enterprise</tspan>
<tspan x="10" y="714">[info] Writing test file for gists</tspan>
<tspan x="10" y="730">[info] Writing test file for gitdata</tspan>
<tspan x="10" y="746">[info] Writing test file for integrations</tspan>
<tspan x="10" y="762">[info] Writing test file for issues</tspan>
<tspan x="10" y="778">[info] Writing test file for migrations</tspan>
<tspan x="10" y="794">[info] Writing test file for misc</tspan>
<tspan x="10" y="810">[info] Writing test file for orgs</tspan>
<tspan x="10" y="826">[info] Writing test file for projects</tspan>
<tspan x="10" y="842">[info] Writing test file for pullRequests</tspan>
<tspan x="10" y="858">[info] Writing test file for reactions</tspan>
<tspan x="10" y="874">[info] Writing test file for repos</tspan>
<tspan x="10" y="890">[info] Writing test file for search</tspan>
<tspan x="10" y="906">[info] Writing test file for users</tspan>
<tspan x="10" y="922">Xlib:  extension "RANDR" missing on display ":99.0".</tspan>
<tspan x="10" y="938"></tspan>
<tspan x="10" y="954">/home/travis/build/npmdoc/node-npmdoc-github/node_modules/utility2/lib.utility2.sh.html.js</tspan>
<tspan x="10" y="970"> #1 Line too long.</tspan>
<tspan x="10" y="986">    process.stdout.write('export npm_package_' + key.replace((/\W/g), '_') + '=' + JSON.stringif\</tspan>
<tspan x="10" y="1002">y(value) + ';'); // Line 1445, Pos 116</tspan>
<tspan x="10" y="1018"></tspan>
<tspan x="10" y="1034">merging file:///home/travis/build/npmdoc/node-npmdoc-github/tmp/build/test-report.json to test-r\</tspan>
<tspan x="10" y="1050">eport</tspan>
<tspan x="10" y="1066">Xlib:  extension "RANDR" missing on display ":99.0".</tspan>
<tspan x="10" y="1082">[4917:0325/123437:WARNING:audio_manager.cc(314)] Multiple instances of AudioManager detected</tspan>
<tspan x="10" y="1098">[4917:0325/123437:WARNING:audio_manager.cc(275)] Multiple instances of AudioManager detected</tspan>
<tspan x="10" y="1114">[4936:0325/123437:ERROR:sandbox_linux.cc(343)] InitializeSandbox() called with multiple threads \</tspan>
<tspan x="10" y="1130">in process gpu-process. </tspan>
<tspan x="10" y="1146">[4917:0325/123438:ERROR:browser_gpu_channel_host_factory.cc(131)] Failed to create channel.</tspan>
<tspan x="10" y="1162">[node test-case 1 of 6 passed] - testCase_buildLib_default</tspan>
<tspan x="10" y="1178">[node test-case 2 of 6 passed] - testCase_buildReadme_default</tspan>
<tspan x="10" y="1194">[node test-case 3 of 6 passed] - testCase_buildTest_default</tspan>
<tspan x="10" y="1210"></tspan>
<tspan x="10" y="1226">browserTest - created electron entry-page /home/travis/build/npmdoc/node-npmdoc-github/tmp/elect\</tspan>
<tspan x="10" y="1242">ron.15b05761b5c0.a3063da26416c.html</tspan>
<tspan x="10" y="1258"></tspan>
<tspan x="10" y="1274">(node:4903) DeprecationWarning: node --debug is deprecated. Please use node --inspect instead.</tspan>
<tspan x="10" y="1290">Xlib:  extension "RANDR" missing on display ":99.0".</tspan>
<tspan x="10" y="1306"></tspan>
<tspan x="10" y="1322">browserTest - opened url file:///home/travis/build/npmdoc/node-npmdoc-github/tmp/build/apidoc.ht\</tspan>
<tspan x="10" y="1338">ml</tspan>
<tspan x="10" y="1354"></tspan>
<tspan x="10" y="1370">&gt; server listening on http-port 55241</tspan>
<tspan x="10" y="1386"></tspan>
<tspan x="10" y="1402">/home/travis/build/npmdoc/node-npmdoc-github/node_modules/utility2/lib.utility2.sh.html.js</tspan>
<tspan x="10" y="1418"> #1 Line too long.</tspan>
<tspan x="10" y="1434">    process.stdout.write('export npm_package_' + key.replace((/\W/g), '_') + '=' + JSON.stringif\</tspan>
<tspan x="10" y="1450">y(value) + ';'); // Line 1445, Pos 116</tspan>
<tspan x="10" y="1466"></tspan>
<tspan x="10" y="1482">merging file:///home/travis/build/npmdoc/node-npmdoc-github/tmp/build/test-report.json to test-r\</tspan>
<tspan x="10" y="1498">eport</tspan>
<tspan x="10" y="1514">Xlib:  extension "RANDR" missing on display ":99.0".</tspan>
<tspan x="10" y="1530">[4973:0325/123439:WARNING:audio_manager.cc(314)] Multiple instances of AudioManager detected</tspan>
<tspan x="10" y="1546">[4973:0325/123439:WARNING:audio_manager.cc(275)] Multiple instances of AudioManager detected</tspan>
<tspan x="10" y="1562">[5008:0325/123439:ERROR:sandbox_linux.cc(343)] InitializeSandbox() called with multiple threads \</tspan>
<tspan x="10" y="1578">in process gpu-process. </tspan>
<tspan x="10" y="1594">[4973:0325/123439:ERROR:browser_gpu_channel_host_factory.cc(131)] Failed to create channel.</tspan>
<tspan x="10" y="1610"></tspan>
<tspan x="10" y="1626">browserTest - opened url http://127.0.0.1:59346?modeTest=1</tspan>
<tspan x="10" y="1642"></tspan>
<tspan x="10" y="1658">[4973:0325/123440:INFO:CONSOLE(203)] "----------|-----------|-----------|-----------|-----------\</tspan>
<tspan x="10" y="1674">|</tspan>
<tspan x="10" y="1690">File      |   % Stmts |% Branches |   % Funcs |   % Lines |</tspan>
<tspan x="10" y="1706">----------|-----------|-----------|-----------|-----------|</tspan>
<tspan x="10" y="1722">----------|-----------|-----------|-----------|-----------|</tspan>
<tspan x="10" y="1738">All files |       100 |       100 |       100 |       100 |</tspan>
<tspan x="10" y="1754">----------|-----------|-----------|-----------|-----------|</tspan>
<tspan x="10" y="1770">", source: file:///home/travis/build/npmdoc/node-npmdoc-github/tmp/electron.15b05761b5c0.a3063da\</tspan>
<tspan x="10" y="1786">26416c.html (203)</tspan>
<tspan x="10" y="1802">[4973:0325/123440:INFO:CONSOLE(203)] "created coverage file:///tmp/build/coverage.html/index.htm\</tspan>
<tspan x="10" y="1818">l", source: file:///home/travis/build/npmdoc/node-npmdoc-github/tmp/electron.15b05761b5c0.a3063d\</tspan>
<tspan x="10" y="1834">a26416c.html (203)</tspan>
<tspan x="10" y="1850"></tspan>
<tspan x="10" y="1866">browserTest - created screen-capture file:///home/travis/build/npmdoc/node-npmdoc-github/tmp/bui\</tspan>
<tspan x="10" y="1882">ld/screen-capture.npmTest.browser._2Fhome_2Ftravis_2Fbuild_2Fnpmdoc_2Fnode-npmdoc-github_2Ftmp_2\</tspan>
<tspan x="10" y="1898">Fbuild_2Fapidoc.html.png</tspan>
<tspan x="10" y="1914"></tspan>
<tspan x="10" y="1930"></tspan>
<tspan x="10" y="1946">browserTest - exit-code 0 - file:///home/travis/build/npmdoc/node-npmdoc-github/tmp/build/apidoc\</tspan>
<tspan x="10" y="1962">.html</tspan>
<tspan x="10" y="1978"></tspan>
<tspan x="10" y="1994">[node test-case 4 of 6 passed] - testCase_buildApidoc_default</tspan>
<tspan x="10" y="2010">[node test-case 5 of 6 passed] - testCase_buildApp_default</tspan>
<tspan x="10" y="2026"></tspan>
<tspan x="10" y="2042">browserTest - created screen-capture file:///home/travis/build/npmdoc/node-npmdoc-github/tmp/bui\</tspan>
<tspan x="10" y="2058">ld/screen-capture.npmTest.browser..png</tspan>
<tspan x="10" y="2074"></tspan>
<tspan x="10" y="2090"></tspan>
<tspan x="10" y="2106">browserTest - exit-code 0 - http://127.0.0.1:59346?modeTest=1</tspan>
<tspan x="10" y="2122"></tspan>
<tspan x="10" y="2138"></tspan>
<tspan x="10" y="2154">browserTest - merged coverage from /home/travis/build/npmdoc/node-npmdoc-github/tmp/coverage.npm\</tspan>
<tspan x="10" y="2170">Test.browser.%2F.json</tspan>
<tspan x="10" y="2186"></tspan>
<tspan x="10" y="2202"></tspan>
<tspan x="10" y="2218">browserTest - merging test-report from /home/travis/build/npmdoc/node-npmdoc-github/tmp/test-rep\</tspan>
<tspan x="10" y="2234">ort.npmTest.browser.%2F.json</tspan>
<tspan x="10" y="2250"></tspan>
<tspan x="10" y="2266">[node test-case 6 of 6 passed] - testCase_webpage_default</tspan>
<tspan x="10" y="2282">---------------------------|-----------|-----------|-----------|-----------|</tspan>
<tspan x="10" y="2298">File                       |   % Stmts |% Branches |   % Funcs |   % Lines |</tspan>
<tspan x="10" y="2314">---------------------------|-----------|-----------|-----------|-----------|</tspan>
<tspan x="10" y="2330">   node-npmdoc-github/     |       100 |       100 |       100 |       100 |</tspan>
<tspan x="10" y="2346">      example.js           |       100 |       100 |       100 |       100 |</tspan>
<tspan x="10" y="2362">      lib.npmdoc_github.js |       100 |       100 |       100 |       100 |</tspan>
<tspan x="10" y="2378">      test.js              |       100 |       100 |       100 |       100 |</tspan>
<tspan x="10" y="2394">---------------------------|-----------|-----------|-----------|-----------|</tspan>
<tspan x="10" y="2410">All files                  |       100 |       100 |       100 |       100 |</tspan>
<tspan x="10" y="2426">---------------------------|-----------|-----------|-----------|-----------|</tspan>
<tspan x="10" y="2442"></tspan>
<tspan x="10" y="2458">created coverage file:///home/travis/build/npmdoc/node-npmdoc-github/tmp/build/coverage.html/ind\</tspan>
<tspan x="10" y="2474">ex.html</tspan>
<tspan x="10" y="2490"></tspan>
<tspan x="10" y="2506">/home/travis/build/npmdoc/node-npmdoc-github/node_modules/utility2/lib.utility2.sh.html.js</tspan>
<tspan x="10" y="2522"> #1 Line too long.</tspan>
<tspan x="10" y="2538">    process.stdout.write('export npm_package_' + key.replace((/\W/g), '_') + '=' + JSON.stringif\</tspan>
<tspan x="10" y="2554">y(value) + ';'); // Line 1445, Pos 116</tspan>
<tspan x="10" y="2570"></tspan>
<tspan x="10" y="2586">merging file:///home/travis/build/npmdoc/node-npmdoc-github/tmp/build/test-report.json to test-r\</tspan>
<tspan x="10" y="2602">eport</tspan>
<tspan x="10" y="2618"></tspan>
<tspan x="10" y="2634">-------------------------------------------------------</tspan>
<tspan x="10" y="2650">| test-report - buildNpmdoc - node - linux v7.7.4 - 2017-03-25T12:34:24.427Z</tspan>
<tspan x="10" y="2666">|   18706 ms            0 failed        6 passed      |</tspan>
<tspan x="10" y="2682">-------------------------------------------------------</tspan>
<tspan x="10" y="2698"></tspan>
<tspan x="10" y="2714">created test-report file:///home/travis/build/npmdoc/node-npmdoc-github/tmp/build/test-report.ht\</tspan>
<tspan x="10" y="2730">ml</tspan>
<tspan x="10" y="2746"></tspan>
<tspan x="10" y="2762"></tspan>
<tspan x="10" y="2778">npmTest - 0 failed tests</tspan>
<tspan x="10" y="2794"></tspan>
<tspan x="10" y="2810"></tspan>
<tspan x="10" y="2826">[MODE_BUILD=npmTest] - 2017-03-25T12:34:46Z - EXIT_CODE - 0</tspan>
</text>
</svg>
